<svg width="70" height="17" viewBox="0 0 160 20" fill="none" xmlns="http://www.w3.org/2000/svg">
<path d="M7.968 13.5079V1.74794H11.328V13.5079C11.328 15.1239 10.84 16.3879 9.864 17.2999C8.904 18.2119 7.656 18.6679 6.12 18.6679C4.584 18.6679 3.328 18.2119 2.352 17.2999C1.376 16.3879 0.888 15.1239 0.888 13.5079H4.272C4.288 14.1959 4.456 14.7319 4.776 15.1159C5.096 15.4839 5.544 15.6679 6.12 15.6679C6.696 15.6679 7.144 15.4839 7.464 15.1159C7.8 14.7319 7.968 14.1959 7.968 13.5079ZM24.147 14.7319C24.851 14.0279 25.203 13.0679 25.203 11.8519C25.203 10.6359 24.851 9.68394 24.147 8.99594C23.443 8.29194 22.619 7.93994 21.675 7.93994C20.731 7.93994 19.907 8.28394 19.203 8.97194C18.515 9.65994 18.171 10.6119 18.171 11.8279C18.171 13.0439 18.523 14.0039 19.227 14.7079C19.931 15.4119 20.747 15.7639 21.675 15.7639C22.619 15.7639 23.443 15.4199 24.147 14.7319ZM16.515 16.7719C15.331 15.4759 14.739 13.8279 14.739 11.8279C14.739 9.82794 15.331 8.19594 16.515 6.93194C17.699 5.65194 19.203 5.01194 21.027 5.01194C22.851 5.01194 24.243 5.76394 25.203 7.26794V5.20394H28.563V18.4999H25.203V16.2679C24.195 17.8839 22.795 18.6919 21.003 18.6919C19.211 18.6919 17.715 18.0519 16.515 16.7719ZM35.5356 5.20394V7.19594C36.3836 5.73994 37.7596 5.01194 39.6636 5.01194C40.6716 5.01194 41.5676 5.24394 42.3516 5.70794C43.1516 6.17194 43.7676 6.83594 44.1996 7.69994C44.6636 6.86794 45.2956 6.21194 46.0956 5.73194C46.9116 5.25194 47.8236 5.01194 48.8316 5.01194C50.4156 5.01194 51.6876 5.50794 52.6476 6.49994C53.6236 7.49194 54.1116 8.88394 54.1116 10.6759V18.4999H50.7516V11.1559C50.7516 10.1159 50.4876 9.32394 49.9596 8.77994C49.4316 8.21994 48.7116 7.93994 47.7996 7.93994C46.8876 7.93994 46.1596 8.21994 45.6156 8.77994C45.0876 9.32394 44.8236 10.1159 44.8236 11.1559V18.4999H41.4636V11.1559C41.4636 10.1159 41.1996 9.32394 40.6716 8.77994C40.1436 8.21994 39.4236 7.93994 38.5116 7.93994C37.5996 7.93994 36.8716 8.21994 36.3276 8.77994C35.7996 9.32394 35.5356 10.1159 35.5356 11.1559V18.4999H32.1516V5.20394H35.5356ZM70.2006 4.21994C69.5286 4.21994 68.9766 4.39594 68.5446 4.74794C68.1286 5.08394 67.9206 5.55594 67.9206 6.16394C67.9206 6.77194 68.0726 7.25194 68.3766 7.60394C68.6966 7.93994 69.1126 8.20394 69.6246 8.39594C70.1366 8.57194 70.6966 8.73194 71.3046 8.87594C71.9126 9.01994 72.5206 9.19594 73.1286 9.40394C73.7366 9.61194 74.2966 9.86794 74.8086 10.1719C75.3206 10.4759 75.7286 10.9239 76.0326 11.5159C76.3526 12.0919 76.5126 12.7959 76.5126 13.6279C76.5126 15.0039 75.9606 16.1879 74.8566 17.1799C73.7686 18.1719 72.3126 18.6679 70.4886 18.6679C68.6806 18.6679 67.2166 18.2439 66.0966 17.3959C64.9766 16.5319 64.4166 15.3239 64.4166 13.7719H68.0166C68.1446 15.2439 68.9846 15.9799 70.5366 15.9799C71.3046 15.9799 71.9126 15.7799 72.3606 15.3799C72.8086 14.9799 73.0326 14.4519 73.0326 13.7959C73.0326 13.1239 72.7366 12.5959 72.1446 12.2119C71.5526 11.8279 70.8326 11.5399 69.9846 11.3479C69.1526 11.1559 68.3126 10.9239 67.4646 10.6519C66.6166 10.3799 65.8966 9.90794 65.3046 9.23594C64.7126 8.54794 64.4166 7.64394 64.4166 6.52394C64.4166 5.00394 64.9686 3.78794 66.0726 2.87594C67.1766 1.96394 68.5926 1.50794 70.3206 1.50794C72.0646 1.50794 73.4646 1.90794 74.5206 2.70794C75.5766 3.49194 76.1526 4.69194 76.2486 6.30794H72.5526C72.4886 5.66794 72.2486 5.16394 71.8326 4.79594C71.4166 4.41194 70.8726 4.21994 70.2006 4.21994ZM85.3691 18.6919C83.4331 18.6919 81.8571 18.0679 80.6411 16.8199C79.4251 15.5559 78.8171 13.8919 78.8171 11.8279C78.8171 9.76394 79.4251 8.11594 80.6411 6.88394C81.8731 5.63594 83.4571 5.01194 85.3931 5.01194C87.3451 5.01194 88.9451 5.61994 90.1931 6.83594C91.4411 8.03594 92.0651 9.64394 92.0651 11.6599C92.0651 12.1239 92.0331 12.5559 91.9691 12.9559H82.2731C82.3531 13.8199 82.6731 14.5159 83.2331 15.0439C83.7931 15.5719 84.5051 15.8359 85.3691 15.8359C86.5371 15.8359 87.4011 15.3559 87.9611 14.3959H91.6091C91.2251 15.6599 90.4811 16.6919 89.3771 17.4919C88.2731 18.2919 86.9371 18.6919 85.3691 18.6919ZM88.5611 10.7719C88.5131 9.89194 88.1851 9.18794 87.5771 8.65994C86.9851 8.13194 86.2651 7.86794 85.4171 7.86794C84.5691 7.86794 83.8571 8.13194 83.2811 8.65994C82.7211 9.18794 82.3851 9.89194 82.2731 10.7719H88.5611ZM103.202 14.7319C103.906 14.0279 104.258 13.0679 104.258 11.8519C104.258 10.6359 103.906 9.68394 103.202 8.99594C102.498 8.29194 101.674 7.93994 100.73 7.93994C99.7857 7.93994 98.9617 8.28394 98.2577 8.97194C97.5697 9.65994 97.2257 10.6119 97.2257 11.8279C97.2257 13.0439 97.5777 14.0039 98.2817 14.7079C98.9857 15.4119 99.8017 15.7639 100.73 15.7639C101.674 15.7639 102.498 15.4199 103.202 14.7319ZM95.5697 16.7719C94.3857 15.4759 93.7937 13.8279 93.7937 11.8279C93.7937 9.82794 94.3857 8.19594 95.5697 6.93194C96.7537 5.65194 98.2577 5.01194 100.082 5.01194C101.906 5.01194 103.298 5.76394 104.258 7.26794V5.20394H107.618V18.4999H104.258V16.2679C103.25 17.8839 101.85 18.6919 100.058 18.6919C98.2657 18.6919 96.7697 18.0519 95.5697 16.7719ZM114.59 5.20394V7.55594C115.486 5.85994 116.782 5.01194 118.478 5.01194V8.46794H117.638C116.63 8.46794 115.87 8.72394 115.358 9.23594C114.846 9.73194 114.59 10.5959 114.59 11.8279V18.4999H111.206V5.20394H114.59ZM121.774 16.8199C120.558 15.5719 119.95 13.9159 119.95 11.8519C119.95 9.78794 120.558 8.13194 121.774 6.88394C122.99 5.63594 124.566 5.01194 126.502 5.01194C128.118 5.01194 129.47 5.40394 130.558 6.18794C131.646 6.97194 132.374 8.08394 132.742 9.52394H129.094C128.662 8.41994 127.798 7.86794 126.502 7.86794C125.526 7.86794 124.758 8.22794 124.198 8.94794C123.654 9.65194 123.382 10.6199 123.382 11.8519C123.382 13.0839 123.654 14.0599 124.198 14.7799C124.758 15.4839 125.526 15.8359 126.502 15.8359C127.782 15.8359 128.646 15.2759 129.094 14.1559H132.742C132.358 15.5479 131.614 16.6519 130.51 17.4679C129.422 18.2839 128.086 18.6919 126.502 18.6919C124.566 18.6919 122.99 18.0679 121.774 16.8199ZM138.661 0.739939V7.19594C139.509 5.73994 140.885 5.01194 142.789 5.01194C144.309 5.01194 145.549 5.51594 146.509 6.52394C147.469 7.51594 147.949 8.89994 147.949 10.6759V18.4999H144.589V11.1559C144.589 10.1159 144.325 9.32394 143.797 8.77994C143.269 8.21994 142.549 7.93994 141.637 7.93994C140.725 7.93994 139.997 8.21994 139.453 8.77994C138.925 9.32394 138.661 10.1159 138.661 11.1559V18.4999H135.277V0.739939H138.661Z" fill="url(#paint0_linear_1398_6899)"/>
<defs>
<linearGradient id="paint0_linear_1398_6899" x1="0" y1="10.9999" x2="150" y2="10.9999" gradientUnits="userSpaceOnUse">
<stop stop-color="#838383"/>
<stop offset="1" stop-color="#444444"/>
</linearGradient>
</defs>
</svg>
