<svg width="143" height="19" viewBox="0 0 143 19" fill="none" xmlns="http://www.w3.org/2000/svg">
<path d="M11.424 1.248V13.008C11.424 14.64 10.952 15.912 10.008 16.824C9.064 17.72 7.8 18.168 6.216 18.168C4.616 18.168 3.32 17.704 2.328 16.776C1.352 15.848 0.864 14.552 0.864 12.888H4.224C4.24 13.608 4.408 14.168 4.728 14.568C5.064 14.968 5.544 15.168 6.168 15.168C6.776 15.168 7.24 14.976 7.56 14.592C7.88 14.208 8.04 13.68 8.04 13.008V1.248H11.424ZM25.6155 14.808H18.9435L17.8395 18H14.3115L20.3355 1.224H24.2475L30.2715 18H26.7195L25.6155 14.808ZM24.7035 12.12L22.2795 5.112L19.8555 12.12H24.7035ZM50.7872 1.248V18H47.4272V7.104L42.9392 18H40.3952L35.8832 7.104V18H32.5232V1.248H36.3392L41.6672 13.704L46.9952 1.248H50.7872ZM65.6119 18.168C64.4439 18.168 63.3879 17.968 62.4439 17.568C61.5159 17.168 60.7799 16.592 60.2359 15.84C59.6919 15.088 59.4119 14.2 59.3959 13.176H62.9959C63.0439 13.864 63.2839 14.408 63.7159 14.808C64.1639 15.208 64.7719 15.408 65.5399 15.408C66.3239 15.408 66.9399 15.224 67.3879 14.856C67.8359 14.472 68.0599 13.976 68.0599 13.368C68.0599 12.872 67.9079 12.464 67.6039 12.144C67.2999 11.824 66.9159 11.576 66.4519 11.4C66.0039 11.208 65.3799 11 64.5799 10.776C63.4919 10.456 62.6039 10.144 61.9159 9.84C61.2439 9.52 60.6599 9.048 60.1639 8.424C59.6839 7.784 59.4439 6.936 59.4439 5.88C59.4439 4.888 59.6919 4.024 60.1879 3.288C60.6839 2.552 61.3799 1.992 62.2759 1.608C63.1719 1.208 64.1959 1.008 65.3479 1.008C67.0759 1.008 68.4759 1.432 69.5479 2.28C70.6359 3.112 71.2359 4.28 71.3479 5.784H67.6519C67.6199 5.208 67.3719 4.736 66.9079 4.368C66.4599 3.984 65.8599 3.792 65.1079 3.792C64.4519 3.792 63.9239 3.96 63.5239 4.296C63.1399 4.632 62.9479 5.12 62.9479 5.76C62.9479 6.208 63.0919 6.584 63.3799 6.888C63.6839 7.176 64.0519 7.416 64.4839 7.608C64.9319 7.784 65.5559 7.992 66.3559 8.232C67.4439 8.552 68.3319 8.872 69.0199 9.192C69.7079 9.512 70.2999 9.992 70.7959 10.632C71.2919 11.272 71.5399 12.112 71.5399 13.152C71.5399 14.048 71.3079 14.88 70.8439 15.648C70.3799 16.416 69.6999 17.032 68.8039 17.496C67.9079 17.944 66.8439 18.168 65.6119 18.168ZM86.8129 11.064C86.8129 11.544 86.7809 11.976 86.7169 12.36H76.9969C77.0769 13.32 77.4129 14.072 78.0049 14.616C78.5969 15.16 79.3249 15.432 80.1889 15.432C81.4369 15.432 82.3249 14.896 82.8529 13.824H86.4769C86.0929 15.104 85.3569 16.16 84.2689 16.992C83.1809 17.808 81.8449 18.216 80.2609 18.216C78.9809 18.216 77.8289 17.936 76.8049 17.376C75.7969 16.8 75.0049 15.992 74.4289 14.952C73.8689 13.912 73.5889 12.712 73.5889 11.352C73.5889 9.976 73.8689 8.768 74.4289 7.728C74.9889 6.688 75.7729 5.888 76.7809 5.328C77.7889 4.768 78.9489 4.488 80.2609 4.488C81.5249 4.488 82.6529 4.76 83.6449 5.304C84.6529 5.848 85.4289 6.624 85.9729 7.632C86.5329 8.624 86.8129 9.768 86.8129 11.064ZM83.3329 10.104C83.3169 9.24 83.0049 8.552 82.3969 8.04C81.7889 7.512 81.0449 7.248 80.1649 7.248C79.3329 7.248 78.6289 7.504 78.0529 8.016C77.4929 8.512 77.1489 9.208 77.0209 10.104H83.3329ZM88.4014 11.304C88.4014 9.96 88.6654 8.768 89.1934 7.728C89.7374 6.688 90.4654 5.888 91.3774 5.328C92.3054 4.768 93.3374 4.488 94.4734 4.488C95.4654 4.488 96.3294 4.688 97.0654 5.088C97.8174 5.488 98.4174 5.992 98.8654 6.6V4.704H102.249V18H98.8654V16.056C98.4334 16.68 97.8334 17.2 97.0654 17.616C96.3134 18.016 95.4414 18.216 94.4494 18.216C93.3294 18.216 92.3054 17.928 91.3774 17.352C90.4654 16.776 89.7374 15.968 89.1934 14.928C88.6654 13.872 88.4014 12.664 88.4014 11.304ZM98.8654 11.352C98.8654 10.536 98.7054 9.84 98.3854 9.264C98.0654 8.672 97.6334 8.224 97.0894 7.92C96.5454 7.6 95.9614 7.44 95.3374 7.44C94.7134 7.44 94.1374 7.592 93.6094 7.896C93.0814 8.2 92.6494 8.648 92.3134 9.24C91.9934 9.816 91.8334 10.504 91.8334 11.304C91.8334 12.104 91.9934 12.808 92.3134 13.416C92.6494 14.008 93.0814 14.464 93.6094 14.784C94.1534 15.104 94.7294 15.264 95.3374 15.264C95.9614 15.264 96.5454 15.112 97.0894 14.808C97.6334 14.488 98.0654 14.04 98.3854 13.464C98.7054 12.872 98.8654 12.168 98.8654 11.352ZM108.891 6.768C109.323 6.064 109.883 5.512 110.571 5.112C111.275 4.712 112.075 4.512 112.971 4.512V8.04H112.083C111.027 8.04 110.227 8.288 109.683 8.784C109.155 9.28 108.891 10.144 108.891 11.376V18H105.531V4.704H108.891V6.768ZM114.37 11.352C114.37 9.976 114.65 8.776 115.21 7.752C115.77 6.712 116.546 5.912 117.538 5.352C118.53 4.776 119.666 4.488 120.946 4.488C122.594 4.488 123.954 4.904 125.026 5.736C126.114 6.552 126.842 7.704 127.21 9.192H123.586C123.394 8.616 123.066 8.168 122.602 7.848C122.154 7.512 121.594 7.344 120.922 7.344C119.962 7.344 119.202 7.696 118.642 8.4C118.082 9.088 117.802 10.072 117.802 11.352C117.802 12.616 118.082 13.6 118.642 14.304C119.202 14.992 119.962 15.336 120.922 15.336C122.282 15.336 123.17 14.728 123.586 13.512H127.21C126.842 14.952 126.114 16.096 125.026 16.944C123.938 17.792 122.578 18.216 120.946 18.216C119.666 18.216 118.53 17.936 117.538 17.376C116.546 16.8 115.77 16 115.21 14.976C114.65 13.936 114.37 12.728 114.37 11.352ZM137.16 4.512C138.168 4.512 139.064 4.736 139.848 5.184C140.632 5.616 141.24 6.264 141.672 7.128C142.12 7.976 142.344 9 142.344 10.2V18H138.984V10.656C138.984 9.6 138.72 8.792 138.192 8.232C137.664 7.656 136.944 7.368 136.032 7.368C135.104 7.368 134.368 7.656 133.824 8.232C133.296 8.792 133.032 9.6 133.032 10.656V18H129.672V0.24H133.032V6.36C133.464 5.784 134.04 5.336 134.76 5.016C135.48 4.68 136.28 4.512 137.16 4.512Z" fill="url(#paint0_linear_479_5094)"/>
<defs>
<linearGradient id="paint0_linear_479_5094" x1="0" y1="10" x2="144" y2="10" gradientUnits="userSpaceOnUse">
<stop stop-color="#838383"/>
<stop offset="1" stop-color="#444444"/>
</linearGradient>
</defs>
</svg>
