<svg width="206" height="26" viewBox="0 0 206 26" fill="none" xmlns="http://www.w3.org/2000/svg">
<path d="M3.336 17.22C1.688 15.604 0.864 13.556 0.864 11.076C0.864 8.596 1.688 6.548 3.336 4.932C5 3.316 7.032 2.508 9.432 2.508C11.256 2.508 12.872 2.972 14.28 3.9C15.704 4.828 16.72 6.132 17.328 7.812H13.272C12.52 6.34 11.24 5.604 9.432 5.604C7.912 5.604 6.672 6.108 5.712 7.116C4.768 8.108 4.296 9.436 4.296 11.1C4.296 12.748 4.768 14.076 5.712 15.084C6.672 16.076 7.84 16.572 9.216 16.572C10.608 16.572 11.696 16.236 12.48 15.564C13.28 14.876 13.776 13.956 13.968 12.804H8.4V10.236H17.592V12.804C17.304 14.628 16.408 16.228 14.904 17.604C13.4 18.964 11.504 19.644 9.216 19.644C6.944 19.644 4.984 18.836 3.336 17.22ZM23.6293 6.204V8.556C24.5253 6.86 25.8213 6.012 27.5173 6.012V9.468H26.6773C25.6693 9.468 24.9093 9.724 24.3973 10.236C23.8853 10.732 23.6293 11.596 23.6293 12.828V19.5H20.2453V6.204H23.6293ZM35.541 19.692C33.605 19.692 32.029 19.068 30.813 17.82C29.597 16.556 28.989 14.892 28.989 12.828C28.989 10.764 29.597 9.116 30.813 7.884C32.045 6.636 33.629 6.012 35.565 6.012C37.517 6.012 39.117 6.62 40.365 7.836C41.613 9.036 42.237 10.644 42.237 12.66C42.237 13.124 42.205 13.556 42.141 13.956H32.445C32.525 14.82 32.845 15.516 33.405 16.044C33.965 16.572 34.677 16.836 35.541 16.836C36.709 16.836 37.573 16.356 38.133 15.396H41.781C41.397 16.66 40.653 17.692 39.549 18.492C38.445 19.292 37.109 19.692 35.541 19.692ZM38.733 11.772C38.685 10.892 38.357 10.188 37.749 9.66C37.157 9.132 36.437 8.868 35.589 8.868C34.741 8.868 34.029 9.132 33.453 9.66C32.893 10.188 32.557 10.892 32.445 11.772H38.733ZM48.4776 19.26L43.2696 6.204H47.0616L50.4456 15.66L54.0216 6.204H57.5496L49.2456 25.788H45.7176L48.4776 19.26ZM66.7219 2.748H70.1059V16.932H75.4819V19.5H66.7219V2.748ZM81.5049 2.82C81.5049 3.396 81.3049 3.884 80.9049 4.284C80.5049 4.684 80.0169 4.884 79.4409 4.884C78.8809 4.884 78.4009 4.684 78.0009 4.284C77.6009 3.884 77.4009 3.396 77.4009 2.82C77.4009 2.244 77.6009 1.756 78.0009 1.356C78.4009 0.955999 78.8809 0.756 79.4409 0.756C80.0169 0.756 80.5049 0.955999 80.9049 1.356C81.3049 1.756 81.5049 2.244 81.5049 2.82ZM77.7609 19.5V6.204H81.1449V19.5H77.7609ZM88.1293 6.204V8.196C88.9773 6.74 90.3533 6.012 92.2573 6.012C93.7773 6.012 95.0173 6.516 95.9773 7.524C96.9373 8.516 97.4173 9.9 97.4173 11.676V19.5H94.0573V12.156C94.0573 11.116 93.7933 10.324 93.2653 9.78C92.7373 9.22 92.0173 8.94 91.1053 8.94C90.1933 8.94 89.4653 9.22 88.9213 9.78C88.3933 10.324 88.1293 11.116 88.1293 12.156V19.5H84.7453V6.204H88.1293ZM104.278 19.5H100.894V1.74H104.278V11.892L108.766 6.204H113.35L107.446 12.924L113.35 19.5H108.838L104.278 13.956V19.5ZM127.904 5.22C127.232 5.22 126.68 5.396 126.248 5.748C125.832 6.084 125.624 6.556 125.624 7.164C125.624 7.772 125.776 8.252 126.08 8.604C126.4 8.94 126.816 9.204 127.328 9.396C127.84 9.572 128.4 9.732 129.008 9.876C129.616 10.02 130.224 10.196 130.832 10.404C131.44 10.612 132 10.868 132.512 11.172C133.024 11.476 133.432 11.924 133.736 12.516C134.056 13.092 134.216 13.796 134.216 14.628C134.216 16.004 133.664 17.188 132.56 18.18C131.472 19.172 130.016 19.668 128.192 19.668C126.384 19.668 124.92 19.244 123.8 18.396C122.68 17.532 122.12 16.324 122.12 14.772H125.72C125.848 16.244 126.688 16.98 128.24 16.98C129.008 16.98 129.616 16.78 130.064 16.38C130.512 15.98 130.736 15.452 130.736 14.796C130.736 14.124 130.44 13.596 129.848 13.212C129.256 12.828 128.536 12.54 127.688 12.348C126.856 12.156 126.016 11.924 125.168 11.652C124.32 11.38 123.6 10.908 123.008 10.236C122.416 9.548 122.12 8.644 122.12 7.524C122.12 6.004 122.672 4.788 123.776 3.876C124.88 2.964 126.296 2.508 128.024 2.508C129.768 2.508 131.168 2.908 132.224 3.708C133.28 4.492 133.856 5.692 133.952 7.308H130.256C130.192 6.668 129.952 6.164 129.536 5.796C129.12 5.412 128.576 5.22 127.904 5.22ZM143.072 19.692C141.136 19.692 139.56 19.068 138.344 17.82C137.128 16.556 136.52 14.892 136.52 12.828C136.52 10.764 137.128 9.116 138.344 7.884C139.576 6.636 141.16 6.012 143.096 6.012C145.048 6.012 146.648 6.62 147.896 7.836C149.144 9.036 149.768 10.644 149.768 12.66C149.768 13.124 149.736 13.556 149.672 13.956H139.976C140.056 14.82 140.376 15.516 140.936 16.044C141.496 16.572 142.208 16.836 143.072 16.836C144.24 16.836 145.104 16.356 145.664 15.396H149.312C148.928 16.66 148.184 17.692 147.08 18.492C145.976 19.292 144.64 19.692 143.072 19.692ZM146.264 11.772C146.216 10.892 145.888 10.188 145.28 9.66C144.688 9.132 143.968 8.868 143.12 8.868C142.272 8.868 141.56 9.132 140.984 9.66C140.424 10.188 140.088 10.892 139.976 11.772H146.264ZM160.905 15.732C161.609 15.028 161.961 14.068 161.961 12.852C161.961 11.636 161.609 10.684 160.905 9.996C160.201 9.292 159.377 8.94 158.433 8.94C157.489 8.94 156.665 9.284 155.961 9.972C155.273 10.66 154.929 11.612 154.929 12.828C154.929 14.044 155.281 15.004 155.985 15.708C156.689 16.412 157.505 16.764 158.433 16.764C159.377 16.764 160.201 16.42 160.905 15.732ZM153.273 17.772C152.089 16.476 151.497 14.828 151.497 12.828C151.497 10.828 152.089 9.196 153.273 7.932C154.457 6.652 155.961 6.012 157.785 6.012C159.609 6.012 161.001 6.764 161.961 8.268V6.204H165.321V19.5H161.961V17.268C160.953 18.884 159.553 19.692 157.761 19.692C155.969 19.692 154.473 19.052 153.273 17.772ZM172.293 6.204V8.556C173.189 6.86 174.485 6.012 176.181 6.012V9.468H175.341C174.333 9.468 173.573 9.724 173.061 10.236C172.549 10.732 172.293 11.596 172.293 12.828V19.5H168.909V6.204H172.293ZM179.477 17.82C178.261 16.572 177.653 14.916 177.653 12.852C177.653 10.788 178.261 9.132 179.477 7.884C180.693 6.636 182.269 6.012 184.205 6.012C185.821 6.012 187.173 6.404 188.261 7.188C189.349 7.972 190.077 9.084 190.445 10.524H186.797C186.365 9.42 185.501 8.868 184.205 8.868C183.229 8.868 182.461 9.228 181.901 9.948C181.357 10.652 181.085 11.62 181.085 12.852C181.085 14.084 181.357 15.06 181.901 15.78C182.461 16.484 183.229 16.836 184.205 16.836C185.485 16.836 186.349 16.276 186.797 15.156H190.445C190.061 16.548 189.317 17.652 188.213 18.468C187.125 19.284 185.789 19.692 184.205 19.692C182.269 19.692 180.693 19.068 179.477 17.82ZM196.364 1.74V8.196C197.212 6.74 198.588 6.012 200.492 6.012C202.012 6.012 203.252 6.516 204.212 7.524C205.172 8.516 205.652 9.9 205.652 11.676V19.5H202.292V12.156C202.292 11.116 202.028 10.324 201.5 9.78C200.972 9.22 200.252 8.94 199.34 8.94C198.428 8.94 197.7 9.22 197.156 9.78C196.628 10.324 196.364 11.116 196.364 12.156V19.5H192.98V1.74H196.364Z" fill="url(#paint0_linear_479_5094)"/>
<defs>
<linearGradient id="paint0_linear_479_5094" x1="0" y1="12" x2="208" y2="12" gradientUnits="userSpaceOnUse">
<stop stop-color="#838383"/>
<stop offset="1" stop-color="#444444"/>
</linearGradient>
</defs>
</svg>
