<svg width="45" height="46" viewBox="0 0 45 46" fill="none" xmlns="http://www.w3.org/2000/svg">
<path d="M22.5 1.09094C34.6503 1.09094 44.5 10.9407 44.5 23.0909C44.5 35.2412 34.6503 45.0909 22.5 45.0909C10.3497 45.0909 0.5 35.2412 0.5 23.0909C0.5 10.9407 10.3497 1.09094 22.5 1.09094Z" fill="#0E3532"/>
<path d="M22.5 1.09094C34.6503 1.09094 44.5 10.9407 44.5 23.0909C44.5 35.2412 34.6503 45.0909 22.5 45.0909C10.3497 45.0909 0.5 35.2412 0.5 23.0909C0.5 10.9407 10.3497 1.09094 22.5 1.09094Z" stroke="#61EDE2"/>
<g clip-path="url(#clip0_479_5105)">
<path d="M32.2187 28.457H31.0234V27.2656H29.8359V26.0781H28.6406V23.6953H27.4531V26.0781H26.2656V27.2656H25.0703V28.4609H22.6953V29.6484H25.0703V30.8359H26.2656V32.0312H27.4531V33.2187H28.6406V34.4062H32.2187V33.2187H33.4062V29.6484H32.2187V28.457ZM32.2187 32.0273H31.0234V30.832H29.8359V29.6445H28.6406V28.457H29.8359V29.6445H31.0234V30.832H32.2187V32.0273Z" fill="#61EDE2"/>
<path d="M29.8359 17.7383H28.6406V23.6914H29.8359V17.7383Z" fill="#61EDE2"/>
<path d="M28.6406 15.3555H27.4531V17.7383H28.6406V15.3555Z" fill="#61EDE2"/>
<path d="M27.4531 14.168H26.2656V15.3555H27.4531V14.168Z" fill="#61EDE2"/>
<path d="M26.2656 20.1211H25.0703V21.3086H26.2656V20.1211Z" fill="#61EDE2"/>
<path d="M26.2656 12.9805H25.0703V14.168H26.2656V12.9805Z" fill="#61EDE2"/>
<path d="M25.0703 21.3086H23.8828V22.5039H25.0703V21.3086Z" fill="#61EDE2"/>
<path d="M25.0703 18.9258H23.8828V20.1211H25.0703V18.9258Z" fill="#61EDE2"/>
<path d="M23.8828 22.5039H22.6953V23.6914H23.8828V22.5039Z" fill="#61EDE2"/>
<path d="M23.8828 17.7383H22.6953V18.9258H23.8828V17.7383Z" fill="#61EDE2"/>
<path d="M25.0703 11.7852H22.6953V12.9805H25.0703V11.7852Z" fill="#61EDE2"/>
<path d="M22.6953 29.6445H16.7422V30.832H22.6953V29.6445Z" fill="#61EDE2"/>
<path d="M21.5 17.7383H20.3125V20.1211H21.5V17.7383Z" fill="#61EDE2"/>
<path d="M20.3125 20.1211H19.1172V21.3086H20.3125V20.1211Z" fill="#61EDE2"/>
<path d="M19.1172 21.3086H17.9297V23.6914H19.1172V21.3086Z" fill="#61EDE2"/>
<path d="M22.6953 10.5977H16.7422V11.7852H22.6953V10.5977Z" fill="#61EDE2"/>
<path d="M16.7422 28.457H14.3594V29.6445H16.7422V28.457Z" fill="#61EDE2"/>
<path d="M16.7422 22.5039H15.5469V23.6914H16.7422V22.5039Z" fill="#61EDE2"/>
<path d="M16.7422 17.7383H15.5469V18.9258H16.7422V17.7383Z" fill="#61EDE2"/>
<path d="M16.7422 11.7852H14.3594V12.9805H16.7422V11.7852Z" fill="#61EDE2"/>
<path d="M15.5469 21.3086H14.3594V22.5039H15.5469V21.3086Z" fill="#61EDE2"/>
<path d="M15.5469 18.9258H14.3594V20.1211H15.5469V18.9258Z" fill="#61EDE2"/>
<path d="M14.3594 27.2617H13.1719V28.457H14.3594V27.2617Z" fill="#61EDE2"/>
<path d="M14.3594 20.1211H13.1719V21.3086H14.3594V20.1211Z" fill="#61EDE2"/>
<path d="M14.3594 12.9805H13.1719V14.168H14.3594V12.9805Z" fill="#61EDE2"/>
<path d="M13.1719 26.0742H11.9766V27.2617H13.1719V26.0742Z" fill="#61EDE2"/>
<path d="M13.1719 14.168H11.9766V15.3555H13.1719V14.168Z" fill="#61EDE2"/>
<path d="M11.9766 23.6914H10.7891V26.0742H11.9766V23.6914Z" fill="#61EDE2"/>
<path d="M11.9766 15.3555H10.7891V17.7383H11.9766V15.3555Z" fill="#61EDE2"/>
<path d="M10.7891 17.7383H9.59375V23.6914H10.7891V17.7383Z" fill="#61EDE2"/>
</g>
<defs>
<clipPath id="clip0_479_5105">
<rect width="25" height="25" fill="white" transform="translate(9 10)"/>
</clipPath>
</defs>
</svg>
